<svg version="1.2" xmlns="http://www.w3.org/2000/svg" viewBox="0 0 800 322" width="800" height="322">
	<title>Logo</title>
	<style>
		.s0 { fill: #f87000 } 
		.s1 { fill: #333333 } 
	</style>
	<g id="Layer 1">
		<g id="&lt;Group&gt;">
			<g id="&lt;Group&gt;">
				<g id="&lt;Group&gt;">
					<g id="&lt;Group&gt;">
						<g id="&lt;Group&gt;">
							<path id="&lt;Path&gt;" class="s0" d="m214.5 254.4c-6.7 0-13.1-2.6-17.8-7.4-4.8-4.7-7.4-11.1-7.4-17.8 0-6.8 2.6-13.1 7.4-17.9 4.7-4.8 11.1-7.4 17.8-7.4 6.8 0 13.1 2.6 17.9 7.4 9.9 9.9 9.9 25.9 0 35.7-4.8 4.8-11.1 7.4-17.9 7.4z"/>
						</g>
						<g id="&lt;Group&gt;">
							<path id="&lt;Path&gt;" class="s0" d="m77.3 119.7c-6.8 0-13.1-2.6-17.9-7.4-4.8-4.8-7.4-11.1-7.4-17.9 0-6.7 2.6-13.1 7.4-17.8 4.8-4.8 11.1-7.4 17.9-7.4 6.7 0 13.1 2.6 17.8 7.4 4.8 4.7 7.4 11.1 7.4 17.8 0 6.8-2.6 13.1-7.4 17.9-4.7 4.8-11.1 7.4-17.8 7.4z"/>
						</g>
						<path id="&lt;Path&gt;" class="s0" d="m213.4 119c-6.7 0-13.1-2.7-17.9-7.4-9.8-9.9-9.8-25.9 0-35.8 4.8-4.7 11.2-7.4 17.9-7.4 6.8 0 13.1 2.7 17.9 7.4 9.8 9.9 9.8 25.9 0 35.8-4.8 4.7-11.1 7.4-17.9 7.4z"/>
						<g id="&lt;Group&gt;">
							<path id="&lt;Path&gt;" class="s0" d="m77.9 254.4c-6.7 0-13.1-2.6-17.8-7.4-4.8-4.7-7.4-11.1-7.4-17.8 0-6.8 2.6-13.1 7.4-17.9 1-1 2.1-1.9 3.5-2.9 0.5-0.3 0.9-0.5 1.3-0.8 0.9-0.5 1.8-1 2.7-1.4q0.7-0.3 1.5-0.6 1.3-0.5 3.1-0.9 0.3-0.1 0.6-0.2 0.2-0.1 0.4-0.1l5.6-0.4q1.1 0 2.3 0.2l0.3 0.1c0.2 0 0.5 0 0.7 0h0.3l0.2 0.1h0.2q0.7 0 1.3 0c9.7 0 19.2-4.1 26.2-11.3 7-7.2 10.8-16.8 10.6-26.5l-0.1-0.3v-0.2q-0.1-0.5-0.1-0.9 0-0.4-0.1-0.9v-0.6q-0.1-0.7-0.2-1.4l0.4-5.7q0.1-0.2 0.2-0.4l0.1-0.3c0.2-1.1 0.5-2.2 0.9-3.2 0.2-0.6 0.4-1 0.6-1.5 0.5-1 0.9-1.9 1.5-2.8q0.3-0.6 0.7-1.2c1.1-1.5 2-2.6 2.9-3.6 4.8-4.8 11.2-7.4 17.9-7.4 6.8 0 13.1 2.6 17.9 7.4 9.8 9.9 9.8 25.9 0 35.8-1 1-2.1 1.9-3.6 2.8q-0.6 0.5-1.2 0.8-1.4 0.8-2.7 1.5-0.8 0.3-1.5 0.6-1.5 0.5-3.1 0.9l-0.6 0.2q-0.2 0-0.4 0.1l-5.7 0.4q-1-0.1-2.1-0.2l-0.5-0.1c-0.1 0-0.4 0-0.7-0.1h-0.2-0.3-0.2q-0.6-0.1-1.2-0.1c-9.7 0-19.3 4.2-26.3 11.4-6.9 7.1-10.8 16.8-10.5 26.4v0.3l0.1 0.3q0 0.4 0 0.8 0.1 0.5 0.1 1c0 0.2 0.1 0.5 0.1 0.9 0.1 0.3 0.1 0.7 0.1 1.1v0.1l-0.4 5.5c0 0.1-0.2 0.7-0.2 0.9q-0.5 1.7-1 3.1c-0.2 0.5-0.4 1-0.6 1.4q-0.6 1.5-1.4 2.9c-0.3 0.3-0.6 0.8-0.8 1.2-1 1.4-1.9 2.5-2.9 3.5-4.8 4.8-11.1 7.4-17.9 7.4z"/>
						</g>
						<path id="&lt;Path&gt;" class="s0" d="m146.2 254.4c-6.8 0-13.1-2.6-17.9-7.4-4.8-4.7-7.4-11.1-7.4-17.8 0-6.8 2.6-13.1 7.4-17.9 1-1 2.1-1.9 3.6-2.9q0.5-0.4 1.2-0.8c0.9-0.5 1.8-1 2.7-1.4q0.8-0.3 1.5-0.6 1.4-0.6 3-0.9c0 0 0.9-0.3 1-0.3l5.7-0.4c0.7 0 1.4 0.1 2.2 0.2l0.4 0.1q0.4 0 0.8 0 0.1 0 0.3 0l0.1 0.1h0.3q0.6 0 1.2 0c9.7 0 19.3-4.1 26.2-11.3 7-7.2 10.8-16.8 10.6-26.5l-0.1-1.1-0.1-0.2q0 0 0-0.1 0-0.4 0-0.8l-0.1-0.8q-0.1-0.7-0.2-1.4l0.4-5.4c0.1-0.2 0.3-0.9 0.3-1.1 0.3-1.3 0.6-2.2 0.9-3.1 0.2-0.5 0.4-0.9 0.7-1.4 0.4-0.9 0.8-1.8 1.4-2.8l0.1-0.2q0.3-0.5 0.6-1c1.1-1.5 2-2.6 3-3.6 4.7-4.7 11.1-7.4 17.8-7.4 6.8 0 13.1 2.6 17.9 7.4 9.9 9.9 9.9 25.9 0 35.8-1 0.9-2.1 1.8-3.6 2.9q-0.4 0.3-0.8 0.5l-0.4 0.3c-0.9 0.5-1.8 0.9-2.7 1.4q-0.8 0.3-1.5 0.6c-0.9 0.3-1.9 0.6-3.1 0.9q-0.3 0.1-0.6 0.2-0.2 0-0.4 0.1l-5.6 0.4c-0.9-0.1-1.8-0.2-2.6-0.3-0.3 0-0.5 0-0.8-0.1q-0.1 0-0.2 0h-0.5q-0.6 0-1.2 0c-9.7 0-19.3 4.1-26.3 11.3-6.9 7.1-10.8 16.8-10.5 26.4v0.3l0.1 0.3q0.1 0.4 0.1 0.9 0 0.4 0 0.8c0.1 0.3 0.1 0.6 0.1 0.9q0.1 0.6 0.1 1.3l-0.4 5.5c0 0.1-0.2 0.9-0.2 0.9-0.3 1.1-0.6 2.2-0.9 3.1q-0.3 0.7-0.6 1.4l-0.1 0.2q-0.6 1.3-1.4 2.6-0.4 0.7-0.8 1.3c-1 1.4-1.9 2.6-2.9 3.6-4.8 4.7-11.1 7.3-17.8 7.3z"/>
						<path id="&lt;Path&gt;" class="s0" d="m77.9 186.2c-6.7 0-13.1-2.6-17.8-7.4-4.8-4.8-7.4-11.1-7.4-17.9 0-6.7 2.6-13 7.4-17.8 0.9-1 2.1-1.9 3.5-2.9q0.6-0.4 1.3-0.8 1.3-0.8 2.7-1.4 0.7-0.4 1.5-0.7 1.4-0.5 3-0.8l0.7-0.2q0.1-0.1 0.3-0.1l5.7-0.4c0.8 0 1.6 0.1 2.4 0.2h0.2c0.3 0.1 0.5 0.1 0.7 0.1q0.2 0 0.3 0h0.2l0.3 0.1q0.6 0 1.2 0c9.7 0 19.2-4.1 26.2-11.3 7-7.2 10.8-16.8 10.5-26.5v-0.3-0.2c-0.1-0.4-0.1-0.7-0.1-1q0-0.4-0.1-0.8v-0.7q-0.1-0.7-0.2-1.4l0.4-5.3v-0.2-0.1c0.1-0.1 0.3-0.8 0.3-0.8 0.3-1.4 0.6-2.3 0.9-3.2q0.3-0.7 0.6-1.4 0.7-1.4 1.5-2.8l0.1-0.2q0.3-0.5 0.7-1c1-1.5 1.9-2.6 2.8-3.6 4.8-4.8 11.2-7.4 17.9-7.4 6.8 0 13.1 2.6 17.9 7.4 9.8 9.9 9.8 25.9 0 35.7-1 1-2.2 2-3.6 2.9-0.4 0.3-0.7 0.5-1 0.7l-0.2 0.1q-1.4 0.8-2.7 1.4-0.8 0.4-1.5 0.7c-1 0.3-2 0.6-3.1 0.9q-0.3 0.1-0.7 0.2-0.2 0-0.4 0.1l-5.6 0.4q-1-0.1-2.2-0.3h-0.4q-0.4-0.1-0.7-0.1-0.1 0-0.3 0h-0.2-0.2q-0.6-0.1-1.3-0.1c-9.6 0-19.2 4.2-26.2 11.3-6.9 7.2-10.8 16.9-10.5 26.5v0.3l0.1 0.3q0 0.4 0 0.8 0.1 0.5 0.1 0.9c0 0.3 0.1 0.6 0.1 0.9q0.1 0.6 0.1 1.2l-0.4 5.5q0 0.2-0.1 0.4l-0.1 0.5c-0.3 1.3-0.6 2.3-1 3.2q-0.2 0.7-0.6 1.5-0.6 1.3-1.4 2.7-0.4 0.7-0.8 1.2c-1 1.5-1.9 2.7-2.9 3.6-4.8 4.8-11.1 7.4-17.9 7.4z"/>
					</g>
				</g>
			</g>
			<g id="&lt;Group&gt;">
				<path id="&lt;Compound Path&gt;" class="s1" d="m285.1 140.2h-18.3v-12.9h52.1v12.9h-18.5v55h-15.3z"/>
				<path id="&lt;Compound Path&gt;" class="s1" d="m367.4 166.5h-24.9v16.1h27.9v12.6h-43.2v-67.9h41.7v12.6h-26.4v14.1h24.9z"/>
				<path id="&lt;Compound Path&gt;" class="s1" d="m430.5 193.4c-2.7 1.3-9.1 2.9-17.3 2.9-23.4 0-35.5-14.7-35.5-34 0-23.2 16.5-36 37-36 8 0 14 1.5 16.8 3.1l-3.3 12c-3-1.3-7.3-2.5-12.9-2.5-12 0-21.5 7.4-21.5 22.5 0 13.6 8.1 22.1 21.6 22.1 4.8 0 9.8-0.9 12.9-2.2z"/>
				<path id="&lt;Compound Path&gt;" class="s1" d="m456.1 127.3v26.1h25.3v-26.1h15.3v67.9h-15.3v-28.4h-25.3v28.4h-15.3v-67.9z"/>
				<path id="&lt;Compound Path&gt;" class="s1" d="m511 127.3h8.8v60.5h29v7.4h-37.8z"/>
				<path id="&lt;Compound Path&gt;" fill-rule="evenodd" class="s1" d="m612.6 160.6c0 23.2-14.2 35.7-31.5 35.7-18 0-30.5-14-30.5-34.5 0-21.6 13.3-35.7 31.4-35.7 18.6 0 30.6 14.2 30.6 34.5zm-52.7 1c0 14.6 7.8 27.6 21.7 27.6 13.9 0 21.8-12.8 21.8-28.2 0-13.6-7.1-27.7-21.7-27.7-14.6 0-21.8 13.5-21.8 28.3z"/>
				<path id="&lt;Compound Path&gt;" class="s1" d="m675.7 192.2c-3.9 1.5-11.7 3.7-20.9 3.7-10.3 0-18.7-2.6-25.4-9-5.8-5.6-9.4-14.7-9.4-25.2 0-20.3 14-35.1 36.7-35.1 7.9 0 14.1 1.7 17 3.2l-2.2 7.1c-3.6-1.7-8.1-2.9-15-2.9-16.5 0-27.3 10.3-27.3 27.3 0 17.2 10.3 27.3 26.2 27.3 5.7 0 9.7-0.8 11.7-1.8v-20.2h-13.7v-7h22.3z"/>
				<path id="&lt;Compound Path&gt;" fill-rule="evenodd" class="s1" d="m747 160.6c0 23.2-14.2 35.7-31.5 35.7-18 0-30.5-14-30.5-34.5 0-21.6 13.3-35.7 31.4-35.7 18.6 0 30.6 14.2 30.6 34.5zm-52.7 1c0 14.6 7.8 27.6 21.7 27.6 13.9 0 21.7-12.8 21.7-28.2 0-13.6-7-27.7-21.6-27.7-14.6 0-21.8 13.5-21.8 28.3z"/>
			</g>
		</g>
	</g>
</svg>